<svg width="63" height="63" viewBox="0 0 63 63" fill="none" xmlns="http://www.w3.org/2000/svg">
<path d="M61.8129 31.5C61.8129 48.3475 48.1966 62 31.4064 62C14.6162 62 1 48.3475 1 31.5C1 14.6525 14.6162 1 31.4064 1C48.1966 1 61.8129 14.6525 61.8129 31.5Z" stroke="#F2E0C2" stroke-width="2"/>
<path d="M21.0055 42H12.8295V41.188C13.2961 40.9827 13.7628 40.8053 14.2295 40.656C14.7148 40.488 15.2001 40.348 15.6855 40.236V26.488L15.7975 24.836C15.2748 25.0413 14.7335 25.1907 14.1735 25.284C13.6135 25.3587 13.0348 25.3867 12.4375 25.368L12.2975 24.696C13.1561 24.416 14.0428 24.0707 14.9575 23.66C15.8721 23.2307 16.7215 22.6987 17.5055 22.064H18.2055V40.236C18.6721 40.348 19.1388 40.488 19.6055 40.656C20.0721 40.8053 20.5388 40.9827 21.0055 41.188V42ZM27.7592 27.86H27.0592C26.8538 27.3187 26.6392 26.684 26.4152 25.956C26.2098 25.228 26.0325 24.5373 25.8832 23.884C26.5365 23.324 27.3205 22.8853 28.2352 22.568C29.1498 22.232 30.1392 22.064 31.2032 22.064C32.1365 22.064 32.9392 22.1947 33.6112 22.456C34.2832 22.7173 34.8338 23.072 35.2632 23.52C35.7112 23.968 36.0378 24.4907 36.2432 25.088C36.4485 25.6667 36.5512 26.2733 36.5512 26.908C36.5512 27.9533 36.3085 29.0267 35.8232 30.128C35.3378 31.2293 34.7312 32.3027 34.0032 33.348C33.2938 34.3747 32.5192 35.3453 31.6792 36.26C30.8392 37.1747 30.0645 37.9773 29.3552 38.668L28.1792 39.76V39.872L29.7472 39.704H34.5632L35.9352 36.568H36.6352C36.6725 36.9787 36.7098 37.4267 36.7472 37.912C36.7845 38.3973 36.8125 38.892 36.8312 39.396C36.8685 39.8813 36.8965 40.3573 36.9152 40.824C36.9338 41.272 36.9432 41.664 36.9432 42H25.3792V41.104C25.7898 40.6747 26.2845 40.152 26.8632 39.536C27.4605 38.92 28.0765 38.2387 28.7112 37.492C29.3458 36.7453 29.9712 35.952 30.5872 35.112C31.2218 34.272 31.7818 33.4227 32.2672 32.564C32.7525 31.6867 33.1445 30.8187 33.4432 29.96C33.7605 29.1013 33.9192 28.28 33.9192 27.496C33.9192 26.9547 33.8445 26.4413 33.6952 25.956C33.5645 25.4707 33.3592 25.0507 33.0792 24.696C32.7992 24.3227 32.4538 24.0333 32.0432 23.828C31.6512 23.6227 31.1938 23.52 30.6712 23.52C30.2792 23.52 29.9338 23.548 29.6352 23.604C29.3365 23.66 29.0098 23.744 28.6552 23.856L27.7592 27.86ZM40.1408 31.64H45.6848V25.76H47.1688V31.64H52.7128V33.124H47.1688V39.144H45.6848V33.124H40.1408V31.64Z" fill="#F2E0C2"/>
</svg>
