<svg width="32" height="32" viewBox="0 0 32 32" fill="none" xmlns="http://www.w3.org/2000/svg">
<path d="M30.2805 10.8123C29.321 9.85264 27.7596 9.85269 26.7997 10.8125C26.5045 11.108 24.6195 12.9944 24.3316 13.2827V6.78145C24.3316 6.12406 24.0756 5.50604 23.6107 5.04122L21.2904 2.72083C20.8256 2.25596 20.2075 2 19.5501 2H5.46306C4.10601 2 3.00195 3.10405 3.00195 4.46111V27.5409C3.00195 28.8979 4.10601 30.002 5.46306 30.002H21.8705C23.2275 30.002 24.3316 28.8979 24.3316 27.5409V20.2467L30.2805 14.2928C31.2423 13.331 31.2425 11.7742 30.2805 10.8123ZM19.4094 3.64074C19.5644 3.64074 19.8631 3.61389 20.1302 3.881L22.4506 6.20139C22.7109 6.46177 22.6909 6.7471 22.6909 6.92222H19.4094V3.64074ZM22.6908 27.5409C22.6908 27.9932 22.3229 28.3612 21.8705 28.3612H5.46306C5.01071 28.3612 4.64269 27.9932 4.64269 27.5409V4.46111C4.64269 4.00876 5.01071 3.64074 5.46306 3.64074H17.7686V7.74259C17.7686 8.19565 18.1359 8.56296 18.589 8.56296H22.6908V14.9248C22.6908 14.9248 20.2705 17.3472 20.2704 17.3473L19.1108 18.5069C19.0208 18.597 18.9529 18.7068 18.9126 18.8276L17.7524 22.3082C17.6541 22.6029 17.7308 22.928 17.9506 23.1477C18.1706 23.3677 18.4957 23.444 18.7901 23.3459L22.2706 22.1857C22.3915 22.1454 22.5013 22.0776 22.5913 21.9875L22.6908 21.888V27.5409ZM20.851 19.0871L22.0112 20.2472L21.568 20.6904L19.8278 21.2704L20.4079 19.5302L20.851 19.0871ZM23.1711 19.0868L22.011 17.9266C22.6288 17.3083 25.3726 14.5622 25.9545 13.9798L27.1147 15.1399L23.1711 19.0868ZM29.1201 13.1329L28.2744 13.9793L27.1142 12.8191L27.9602 11.9724C28.2802 11.6525 28.8006 11.6526 29.1204 11.9724C29.4402 12.2924 29.4419 12.811 29.1201 13.1329Z" fill="#8F8F8F"/>
<path d="M18.5881 10.2037H7.10296C6.6499 10.2037 6.28259 10.571 6.28259 11.0241C6.28259 11.4772 6.6499 11.8445 7.10296 11.8445H18.5881C19.0412 11.8445 19.4085 11.4772 19.4085 11.0241C19.4085 10.571 19.0412 10.2037 18.5881 10.2037Z" fill="#8F8F8F"/>
<path d="M15.3067 13.4852H7.10296C6.6499 13.4852 6.28259 13.8525 6.28259 14.3056C6.28259 14.7587 6.6499 15.126 7.10296 15.126H15.3067C15.7597 15.126 16.127 14.7587 16.127 14.3056C16.127 13.8525 15.7597 13.4852 15.3067 13.4852Z" fill="#8F8F8F"/>
<path d="M15.3067 16.7667H7.10296C6.6499 16.7667 6.28259 17.134 6.28259 17.5871C6.28259 18.0402 6.6499 18.4075 7.10296 18.4075H15.3067C15.7597 18.4075 16.127 18.0402 16.127 17.5871C16.127 17.134 15.7597 16.7667 15.3067 16.7667Z" fill="#8F8F8F"/>
<path d="M15.3067 20.0483H7.10296C6.6499 20.0483 6.28259 20.4156 6.28259 20.8687C6.28259 21.3218 6.6499 21.6891 7.10296 21.6891H15.3067C15.7597 21.6891 16.127 21.3218 16.127 20.8687C16.127 20.4156 15.7597 20.0483 15.3067 20.0483Z" fill="#8F8F8F"/>
<path d="M18.5883 25.0798H13.6661C13.213 25.0798 12.8457 25.4471 12.8457 25.9002C12.8457 26.3533 13.213 26.7206 13.6661 26.7206H18.5883C19.0414 26.7206 19.4087 26.3533 19.4087 25.9002C19.4087 25.4471 19.0414 25.0798 18.5883 25.0798Z" fill="#8F8F8F"/>
</svg>
