<svg width="32" height="32" viewBox="0 0 32 32" fill="none" xmlns="http://www.w3.org/2000/svg">
<path d="M16 4C8.31039 4 2 10.2557 2 17.9453V24.5078C2 25.8648 3.10392 26.9688 4.46094 26.9688H5.28125V18.7656H4.46094C4.17197 18.7656 3.89848 18.8248 3.64062 18.9167V17.9453C3.64062 11.1601 9.21481 5.64062 16 5.64062C22.7852 5.64062 28.3594 11.1601 28.3594 17.9453V18.9167C28.1015 18.8248 27.828 18.7656 27.5391 18.7656H26.7188V26.9688H27.5391C28.8961 26.9688 30 25.8648 30 24.5078V17.9453C30 10.2557 23.6896 4 16 4Z" fill="#8F8F8F"/>
<path d="M9.38281 17.125H8.5625C7.65638 17.125 6.92188 17.8595 6.92188 18.7656V26.9688C6.92188 27.8749 7.65638 28.6094 8.5625 28.6094H9.38281C9.83584 28.6094 10.2031 28.2421 10.2031 27.7891V17.9453C10.2031 17.4923 9.83584 17.125 9.38281 17.125Z" fill="#8F8F8F"/>
<path d="M23.4375 17.125H22.6172C22.1642 17.125 21.7969 17.4923 21.7969 17.9453V27.7891C21.7969 28.2421 22.1642 28.6094 22.6172 28.6094H23.4375C24.3436 28.6094 25.0781 27.8749 25.0781 26.9688V18.7656C25.0781 17.8595 24.3436 17.125 23.4375 17.125Z" fill="#8F8F8F"/>
</svg>
