<svg width="32" height="32" viewBox="0 0 32 32" fill="none" xmlns="http://www.w3.org/2000/svg">
<path d="M21.3598 8.1705C19.9283 6.3435 18.4477 4.457 17.2542 2.4305C17.0967 2.1645 16.8097 2 16.5 2C16.1903 2 15.9033 2.1645 15.7475 2.4305C14.554 4.45525 13.0735 6.3435 11.642 8.16875C8.7405 11.8682 6 15.363 6 19.5C6 25.2908 10.7092 30 16.5 30C22.2908 30 27 25.2908 27 19.5C27 15.3647 24.2613 11.87 21.3598 8.1705ZM16.5 28.25C11.6753 28.25 7.75 24.3247 7.75 19.5C7.75 15.9668 10.3085 12.7048 13.0193 9.2485C14.2023 7.74 15.4167 6.19125 16.5 4.53225C17.5833 6.19125 18.7978 7.74175 19.9808 9.25025C22.6915 12.7048 25.25 15.9685 25.25 19.5C25.25 24.3247 21.3247 28.25 16.5 28.25Z" fill="#8F8F8F"/>
<path d="M13.875 12.5C12.4277 12.5 11.25 13.6777 11.25 15.125C11.25 16.5722 12.4277 17.75 13.875 17.75C15.3222 17.75 16.5 16.5722 16.5 15.125C16.5 13.6777 15.3222 12.5 13.875 12.5ZM13.875 16C13.392 16 13 15.608 13 15.125C13 14.642 13.392 14.25 13.875 14.25C14.358 14.25 14.75 14.642 14.75 15.125C14.75 15.608 14.358 16 13.875 16Z" fill="#8F8F8F"/>
<path d="M19.125 21.25C17.6777 21.25 16.5 22.4277 16.5 23.875C16.5 25.3222 17.6777 26.5 19.125 26.5C20.5722 26.5 21.75 25.3222 21.75 23.875C21.75 22.4277 20.5722 21.25 19.125 21.25ZM19.125 24.75C18.6437 24.75 18.25 24.3563 18.25 23.875C18.25 23.3937 18.6437 23 19.125 23C19.6063 23 20 23.3937 20 23.875C20 24.3563 19.6063 24.75 19.125 24.75Z" fill="#8F8F8F"/>
<path d="M21.4927 14.5074C21.1514 14.1662 20.5967 14.1662 20.2554 14.5074L11.5054 23.2574C11.1642 23.5986 11.1642 24.1534 11.5054 24.4946C11.6769 24.6644 11.9009 24.7501 12.1249 24.7501C12.3489 24.7501 12.5729 24.6644 12.7427 24.4946L21.4927 15.7447C21.8339 15.4034 21.8339 14.8487 21.4927 14.5074Z" fill="#8F8F8F"/>
</svg>
