<svg width="32" height="32" viewBox="0 0 32 32" fill="none" xmlns="http://www.w3.org/2000/svg">
<circle cx="16" cy="16" r="16" fill="#C13584"/>
<path d="M16 8.12962C18.5633 8.12962 18.867 8.13942 19.8792 8.1856C20.8152 8.22828 21.3235 8.38467 21.6618 8.51614C22.1099 8.69029 22.4297 8.89832 22.7656 9.23423C23.1016 9.57019 23.3096 9.88998 23.4838 10.3381C23.6152 10.6764 23.7716 11.1847 23.8143 12.1207C23.8605 13.1329 23.8703 13.4366 23.8703 15.9998C23.8703 18.5632 23.8605 18.8668 23.8143 19.8791C23.7716 20.8151 23.6152 21.3234 23.4838 21.6617C23.3096 22.1098 23.1016 22.4296 22.7657 22.7655C22.4297 23.1014 22.1099 23.3094 21.6618 23.4836C21.3235 23.6151 20.8152 23.7715 19.8792 23.8141C18.8671 23.8603 18.5635 23.8701 16 23.8701C13.4365 23.8701 13.133 23.8603 12.1208 23.8141C11.1848 23.7715 10.6765 23.6151 10.3382 23.4836C9.89011 23.3094 9.57031 23.1014 9.2344 22.7655C8.89848 22.4296 8.69042 22.1098 8.51627 21.6617C8.3848 21.3234 8.2284 20.8151 8.18572 19.8791C8.13954 18.8668 8.12974 18.5632 8.12974 15.9998C8.12974 13.4366 8.13954 13.1329 8.18572 12.1207C8.2284 11.1847 8.3848 10.6764 8.51627 10.3381C8.69042 9.88998 8.89844 9.57019 9.2344 9.23427C9.57031 8.89832 9.89011 8.69029 10.3382 8.51614C10.6765 8.38467 11.1848 8.22828 12.1208 8.1856C13.1331 8.13942 13.4367 8.12962 16 8.12962ZM16 6.3999C13.3928 6.3999 13.0659 6.41095 12.0419 6.45767C11.0201 6.50428 10.3223 6.66658 9.71165 6.90387C9.08037 7.1492 8.545 7.47746 8.01127 8.01115C7.47758 8.54488 7.14932 9.08024 6.90402 9.71153C6.66669 10.3222 6.50439 11.02 6.45779 12.0418C6.41107 13.0658 6.40002 13.3927 6.40002 15.9998C6.40002 18.6071 6.41107 18.934 6.45779 19.9579C6.50439 20.9797 6.66669 21.6776 6.90402 22.2882C7.14932 22.9195 7.47758 23.4549 8.01127 23.9886C8.545 24.5223 9.08037 24.8505 9.71165 25.0958C10.3223 25.3332 11.0201 25.4955 12.0419 25.5421C13.0659 25.5888 13.3928 25.5998 16 25.5998C18.6072 25.5998 18.9341 25.5888 19.9581 25.5421C20.9799 25.4955 21.6777 25.3332 22.2884 25.0958C22.9197 24.8505 23.455 24.5223 23.9888 23.9886C24.5225 23.4549 24.8507 22.9195 25.096 22.2882C25.3333 21.6776 25.4956 20.9797 25.5422 19.9579C25.589 18.934 25.6 18.6071 25.6 15.9998C25.6 13.3927 25.589 13.0658 25.5422 12.0418C25.4956 11.02 25.3333 10.3222 25.096 9.71153C24.8507 9.08024 24.5225 8.54488 23.9888 8.01115C23.455 7.47746 22.9197 7.1492 22.2884 6.90387C21.6777 6.66658 20.9799 6.50428 19.9581 6.45767C18.9341 6.41095 18.6072 6.3999 16 6.3999Z" fill="white"/>
<path d="M16.0045 11.0747C13.2818 11.0747 11.0747 13.2818 11.0747 16.0044C11.0747 18.727 13.2818 20.9341 16.0045 20.9341C18.7271 20.9341 20.9342 18.727 20.9342 16.0044C20.9342 13.2818 18.7271 11.0747 16.0045 11.0747ZM16.0045 19.2044C14.2371 19.2044 12.8045 17.7717 12.8045 16.0044C12.8045 14.2371 14.2371 12.8044 16.0045 12.8044C17.7718 12.8044 19.2045 14.2371 19.2045 16.0044C19.2045 17.7717 17.7718 19.2044 16.0045 19.2044Z" fill="white"/>
<path d="M22.2806 10.8769C22.2806 11.5131 21.7648 12.0289 21.1286 12.0289C20.4924 12.0289 19.9766 11.5131 19.9766 10.8769C19.9766 10.2406 20.4924 9.72485 21.1286 9.72485C21.7648 9.72485 22.2806 10.2406 22.2806 10.8769Z" fill="white"/>
</svg>
