<svg width="192" height="24" viewBox="0 0 192 24" fill="none" xmlns="http://www.w3.org/2000/svg">
<path d="M16.7307 23.6791H14.8075V2.00535H1.92325V23.6791H0V0.320856H16.7307V23.6791Z" fill="#111111"/>
<path d="M23.8771 14.1658V23.6791H21.9538V0.320856H29.7094C32.0757 0.320856 33.9416 0.941176 35.3072 2.18182C36.6831 3.42246 37.3711 5.12834 37.3711 7.29947C37.3711 9.49198 36.7092 11.1872 35.3853 12.385C34.0719 13.5722 32.1643 14.1658 29.6625 14.1658H23.8771ZM23.8771 12.4973H29.7094C31.5753 12.4973 32.9982 12.0428 33.9781 11.1337C34.958 10.2246 35.4479 8.95722 35.4479 7.33155C35.4479 5.71658 34.958 4.43316 33.9781 3.48128C33.0086 2.51872 31.6274 2.02674 29.8345 2.00535H23.8771V12.4973Z" fill="#111111"/>
<path d="M57.8708 13.2674C57.8708 15.4171 57.506 17.3048 56.7763 18.9305C56.057 20.5561 55.025 21.8075 53.6803 22.6845C52.3356 23.5615 50.7824 24 49.0207 24C46.3626 24 44.2152 23.0267 42.5786 21.0802C40.942 19.123 40.1237 16.4866 40.1237 13.1711V10.7647C40.1237 8.63636 40.4886 6.75401 41.2183 5.11765C41.9584 3.47059 43.0008 2.20856 44.3455 1.33155C45.6902 0.44385 47.2382 0 48.9895 0C50.7407 0 52.2835 0.433155 53.6178 1.29947C54.9625 2.16578 55.9997 3.39037 56.7294 4.97326C57.4591 6.55615 57.8396 8.39037 57.8708 10.4759V13.2674ZM55.9476 10.7326C55.9476 7.91979 55.3273 5.71658 54.0869 4.12299C52.8464 2.52941 51.1473 1.73262 48.9895 1.73262C46.8734 1.73262 45.1847 2.53476 43.9233 4.13904C42.6724 5.73262 42.047 7.96257 42.047 10.8289V13.2674C42.047 16.0374 42.6724 18.2353 43.9233 19.861C45.1742 21.4759 46.8734 22.2834 49.0207 22.2834C51.1994 22.2834 52.8985 21.4866 54.1181 19.893C55.3378 18.2888 55.9476 16.0588 55.9476 13.2032V10.7326Z" fill="#111111"/>
<path d="M71.7389 14.5348V23.6791H68.7367V0.320856H77.1334C79.6247 0.320856 81.574 0.973262 82.9813 2.27807C84.399 3.58289 85.1078 5.31016 85.1078 7.45989C85.1078 9.72727 84.4146 11.4759 83.0282 12.7059C81.6522 13.9251 79.6769 14.5348 77.1021 14.5348H71.7389ZM71.7389 12.016H77.1334C78.7387 12.016 79.9687 11.631 80.8235 10.861C81.6783 10.0802 82.1057 8.95722 82.1057 7.49198C82.1057 6.1016 81.6783 4.9893 80.8235 4.15508C79.9687 3.32086 78.796 2.8877 77.3054 2.85561H71.7389V12.016Z" fill="#0A9CE5"/>
<path d="M101.167 12.8824H91.3004V21.1604H102.762V23.6791H88.2982V0.320856H102.605V2.85561H91.3004V10.3636H101.167V12.8824Z" fill="#0A9CE5"/>
<path d="M109.736 0.320856L117.179 19.3797L124.622 0.320856H128.515V23.6791H125.513V14.5829L125.794 4.76471L118.32 23.6791H116.022L108.563 4.81283L108.86 14.5829V23.6791H105.858V0.320856H109.736Z" fill="#0A9CE5"/>
<path d="M150.688 12.754C150.688 15.0428 150.313 17.0428 149.562 18.754C148.812 20.4545 147.748 21.754 146.372 22.6524C144.996 23.5508 143.391 24 141.556 24C139.763 24 138.174 23.5508 136.787 22.6524C135.401 21.7433 134.322 20.4545 133.551 18.7861C132.79 17.107 132.399 15.1658 132.378 12.9626V11.2781C132.378 9.03209 132.758 7.04813 133.519 5.3262C134.28 3.60428 135.354 2.28877 136.74 1.37968C138.137 0.459893 139.732 0 141.525 0C143.349 0 144.955 0.454545 146.341 1.36364C147.738 2.26203 148.812 3.57219 149.562 5.29412C150.313 7.00535 150.688 9 150.688 11.2781V12.754ZM147.701 11.246C147.701 8.47593 147.159 6.35294 146.075 4.87701C144.991 3.39037 143.474 2.64706 141.525 2.64706C139.628 2.64706 138.132 3.39037 137.038 4.87701C135.953 6.35294 135.396 8.40642 135.364 11.0374V12.754C135.364 15.4385 135.912 17.5508 137.006 19.0909C138.111 20.6203 139.628 21.385 141.556 21.385C143.495 21.385 144.996 20.6631 146.06 19.2192C147.123 17.7647 147.67 15.6845 147.701 12.9786V11.246Z" fill="#0A9CE5"/>
<path d="M172.048 23.6791H169.03V12.8824H157.553V23.6791H154.551V0.320856H157.553V10.3636H169.03V0.320856H172.048V23.6791Z" fill="#0A9CE5"/>
<path d="M192 2.85561H184.682V23.6791H181.696V2.85561H174.394V0.320856H192V2.85561Z" fill="#0A9CE5"/>
</svg>
