<svg width="40" height="40" viewBox="0 0 40 40" xmlns="http://www.w3.org/2000/svg">
<path d="M22.0536 11.3841C21.5682 10.9037 20.91 10.6336 20.2236 10.6332V10.6295C19.5368 10.6318 18.8788 10.9029 18.3931 11.3836C17.9075 11.8643 17.6336 12.5156 17.6312 13.1954C17.6326 13.8756 17.9061 14.5276 18.3919 15.0088C18.8778 15.4899 19.5363 15.761 20.2236 15.7628C20.9105 15.7612 21.5688 15.49 22.0541 15.0087C22.5394 14.5275 22.812 13.8753 22.8122 13.1954C22.8118 12.516 22.5389 11.8645 22.0536 11.3841Z" />
<path fill-rule="evenodd" clip-rule="evenodd" d="M20 40C31.0457 40 40 31.0457 40 20C40 8.9543 31.0457 0 20 0C8.9543 0 0 8.9543 0 20C0 31.0457 8.9543 40 20 40ZM26.392 22.9505C25.2723 23.646 24.0424 24.1503 22.7538 24.4423L26.2556 27.9061C26.5856 28.2442 26.7701 28.696 26.7701 29.1661C26.7701 29.6363 26.5856 30.0881 26.2556 30.4262C25.5524 31.1485 24.3922 31.1643 23.6617 30.4735L20.2243 27.066L16.7665 30.469C16.4195 30.8237 15.9504 31 15.4806 31C15.0107 31 14.5409 30.8237 14.1931 30.469L14.162 30.4382C13.8264 30.0981 13.6409 29.6401 13.646 29.1647C13.6511 28.6893 13.8465 28.2353 14.1893 27.9023L17.6903 24.4378C16.4036 24.1481 15.1758 23.6447 14.0589 22.949L14.0559 22.9452C13.8522 22.8186 13.6757 22.6534 13.5366 22.4591C13.3975 22.2648 13.2985 22.0452 13.2452 21.813C13.192 21.5807 13.1856 21.3404 13.2264 21.1057C13.2672 20.871 13.3544 20.6466 13.483 20.4453V20.4416C13.7433 20.0363 14.1552 19.7496 14.6286 19.6443C15.102 19.539 15.5983 19.6237 16.0087 19.8798C17.273 20.661 18.7335 21.0752 20.224 21.0752C21.7144 21.0752 23.1749 20.661 24.4392 19.8798C24.8501 19.6416 25.3386 19.5709 25.8012 19.6827C26.2638 19.7946 26.6644 20.0801 26.9181 20.4791C27.1718 20.878 27.2587 21.3589 27.1605 21.8202C27.0624 22.2814 26.7868 22.6868 26.392 22.9505ZM24.6474 17.5732C23.4739 18.7341 21.8828 19.3868 20.2236 19.3878V19.3915C18.564 19.3895 16.9729 18.7361 15.7995 17.5745C14.626 16.4129 13.966 14.838 13.9642 13.1954C13.9642 9.78117 16.7741 7 20.2236 7C23.673 7 26.4829 9.78117 26.4829 13.1954C26.4811 14.8377 25.821 16.4122 24.6474 17.5732Z" />
</svg>
