<svg width="40" height="40" viewBox="0 0 40 40" xmlns="http://www.w3.org/2000/svg">
<path d="M20 11C18.8133 11 17.6533 11.3519 16.6666 12.0112C15.6799 12.6705 14.9109 13.6075 14.4567 14.7039C14.0026 15.8003 13.8838 17.0067 14.1153 18.1705C14.3468 19.3344 14.9182 20.4035 15.7574 21.2426C16.5965 22.0818 17.6656 22.6532 18.8295 22.8847C19.9933 23.1162 21.1997 22.9974 22.2961 22.5433C23.3925 22.0891 24.3295 21.3201 24.9888 20.3334C25.6481 19.3467 26 18.1867 26 17C26 15.4087 25.3679 13.8826 24.2426 12.7574C23.1174 11.6321 21.5913 11 20 11Z" />
<path d="M20 2C16.4399 2 12.9598 3.05568 9.99974 5.03355C7.03966 7.01141 4.73255 9.82263 3.37018 13.1117C2.0078 16.4008 1.65134 20.02 2.34587 23.5116C3.04041 27.0033 4.75474 30.2106 7.27208 32.7279C9.78943 35.2453 12.9967 36.9596 16.4884 37.6541C19.98 38.3487 23.5992 37.9922 26.8883 36.6298C30.1774 35.2674 32.9886 32.9603 34.9665 30.0003C36.9443 27.0402 38 23.5601 38 20C37.9946 15.2278 36.0964 10.6526 32.7219 7.27809C29.3474 3.90362 24.7722 2.00544 20 2ZM30.2754 31.4763C30.2498 29.7899 29.5627 28.181 28.3622 26.9963C27.1616 25.8117 25.5438 25.146 23.8571 25.1429H16.1429C14.4562 25.146 12.8384 25.8117 11.6378 26.9963C10.4373 28.181 9.7502 29.7899 9.72458 31.4763C7.39302 29.3944 5.7488 26.6534 5.00965 23.6163C4.2705 20.5792 4.47128 17.3892 5.5854 14.4687C6.69952 11.5482 8.67443 9.035 11.2486 7.26187C13.8228 5.48874 16.8749 4.53932 20.0006 4.53932C23.1264 4.53932 26.1785 5.48874 28.7527 7.26187C31.3269 9.035 33.3018 11.5482 34.4159 14.4687C35.53 17.3892 35.7308 20.5792 34.9916 23.6163C34.2525 26.6534 32.6083 29.3944 30.2767 31.4763H30.2754Z" />
</svg>
