<svg width="32" height="32" viewBox="0 0 32 32" fill="none" xmlns="http://www.w3.org/2000/svg">
<circle cx="16" cy="16" r="16" fill="#7294C7"/>
<path d="M23.845 20.0922C23.845 20.0257 23.7786 20.0257 23.7786 19.9593C23.5129 19.428 22.9152 18.7638 22.1181 18.0332C21.7196 17.7011 21.5204 17.4354 21.3875 17.3026C21.1883 17.0369 21.1883 16.8377 21.2547 16.572C21.3211 16.3727 21.5868 16.0406 22.0517 15.4429C22.3174 15.1108 22.4502 14.9115 22.6495 14.7123C23.6457 13.3839 24.1107 12.5205 23.9778 12.122L23.9114 12.0555C23.845 11.9891 23.7786 11.9227 23.6457 11.9227C23.5129 11.8563 23.3137 11.8563 23.1144 11.9227H20.5905C20.5241 11.9227 20.5241 11.9227 20.3913 11.9227C20.3248 11.9227 20.2584 11.9227 20.2584 11.9227H20.192H20.1256L20.0592 11.9891C19.9927 12.0555 19.9927 12.0555 19.9927 12.122C19.7271 12.8526 19.395 13.4503 19.0629 14.1145C18.8636 14.4466 18.6644 14.7787 18.4651 15.0444C18.2659 15.31 18.133 15.5093 18.0002 15.6421C17.8673 15.775 17.7345 15.8414 17.6681 15.9742C17.6017 16.0406 17.4688 16.1071 17.4688 16.0406C17.4024 16.0406 17.336 16.0406 17.336 15.9742C17.2696 15.9078 17.2032 15.8414 17.1368 15.775C17.0703 15.7085 17.0703 15.5757 17.0039 15.4429C17.0039 15.31 17.0039 15.1772 17.0039 15.1108C17.0039 15.0444 17.0039 14.8451 17.0039 14.7123C17.0039 14.513 17.0039 14.3802 17.0039 14.3138C17.0039 14.1145 17.0039 13.8488 17.0039 13.5832C17.0039 13.3175 17.0039 13.1182 17.0039 12.9854C17.0039 12.8526 17.0039 12.6533 17.0039 12.5205C17.0039 12.3212 17.0039 12.1884 17.0039 12.122C17.0039 12.0555 16.9375 11.9227 16.9375 11.8563C16.8711 11.7899 16.8047 11.7234 16.7382 11.657C16.6718 11.5906 16.539 11.5906 16.4726 11.5242C16.1405 11.4578 15.742 11.3914 15.2771 11.3914C14.2144 11.3914 13.4838 11.4578 13.2181 11.5906C13.0852 11.657 12.9524 11.7234 12.886 11.8563C12.7531 11.9891 12.7531 12.0555 12.8196 12.0555C13.1517 12.122 13.4173 12.2548 13.5502 12.454L13.6166 12.5869C13.683 12.6533 13.683 12.7861 13.7494 12.9854C13.8158 13.1846 13.8158 13.3839 13.8158 13.6496C13.8158 14.0481 13.8158 14.4466 13.8158 14.7123C13.8158 15.0444 13.7494 15.2436 13.7494 15.4429C13.7494 15.6421 13.683 15.775 13.6166 15.8414C13.5502 15.9742 13.5502 16.0406 13.4837 16.0406C13.4837 16.0406 13.4837 16.1071 13.4173 16.1071C13.3509 16.1071 13.2845 16.1735 13.1517 16.1735C13.0852 16.1735 12.9524 16.1071 12.886 16.0406C12.7531 15.9742 12.6203 15.8414 12.5539 15.7085C12.4211 15.5757 12.2882 15.3765 12.1554 15.1108C12.0225 14.8451 11.8233 14.5794 11.6904 14.1809L11.5576 13.9153C11.4912 13.7824 11.3584 13.5167 11.2255 13.1847C11.0927 12.8526 10.9598 12.5869 10.827 12.2548C10.7606 12.122 10.6942 12.0555 10.6278 11.9891H10.5613C10.5613 11.9891 10.4949 11.9227 10.4285 11.9227C10.3621 11.9227 10.2957 11.8563 10.2293 11.8563H7.83819C7.57251 11.8563 7.43968 11.9227 7.37326 11.9891L7.30684 12.0555C7.30684 12.0555 7.30684 12.122 7.30684 12.1884C7.30684 12.2548 7.30684 12.3212 7.37326 12.454C7.70535 13.2511 8.10386 14.0481 8.50237 14.8451C8.90088 15.5757 9.2994 16.2399 9.56507 16.7048C9.89716 17.1698 10.1628 17.6347 10.4949 18.0332C10.827 18.4317 11.0263 18.6974 11.0927 18.8302C11.2255 18.963 11.2919 19.0295 11.3584 19.0959L11.5576 19.2951C11.6905 19.428 11.8897 19.6272 12.1554 19.8265C12.4211 20.0257 12.7531 20.225 13.0852 20.4242C13.4173 20.6235 13.8158 20.7563 14.2144 20.8892C14.6793 21.022 15.0778 21.0884 15.4763 21.022H16.4726C16.6718 21.022 16.8047 20.9556 16.9375 20.8228L17.0039 20.7563C17.0039 20.6899 17.0703 20.6899 17.0703 20.6235C17.0703 20.5571 17.0703 20.4907 17.0703 20.3578C17.0703 20.0922 17.0703 19.8929 17.1368 19.6937C17.2032 19.4944 17.2032 19.3616 17.2696 19.2287C17.336 19.0959 17.4024 19.0295 17.4688 18.963C17.5353 18.8966 17.6017 18.8302 17.6017 18.8302H17.6681C17.8009 18.7638 18.0002 18.8302 18.133 18.963C18.3323 19.0959 18.5315 19.2951 18.6644 19.4944C18.7972 19.6936 18.9965 19.8929 19.2622 20.1586C19.5278 20.4243 19.7271 20.6235 19.8599 20.6899L20.0592 20.8228C20.192 20.8892 20.3248 20.9556 20.5241 21.022C20.7234 21.0884 20.8562 21.0884 20.989 21.0884L23.2473 21.022C23.4465 21.022 23.6458 20.9556 23.7786 20.8892C23.9114 20.8228 23.9778 20.7563 23.9778 20.6235C23.9778 20.5571 23.9778 20.4243 23.9778 20.3578C23.845 20.225 23.845 20.1586 23.845 20.0922Z" fill="white"/>
</svg>
