<svg width="40" height="40" viewBox="0 0 40 40" xmlns="http://www.w3.org/2000/svg">
<path fill-rule="evenodd" clip-rule="evenodd" d="M0 20C0 8.95417 8.95417 0 20 0C31.0458 0 40 8.95417 40 20C40 31.0458 31.0458 40 20 40C8.95417 40 0 31.0458 0 20ZM31.1643 13.1708C31.9949 13.1708 32.1706 13.5986 31.995 14.1821C31.6461 15.7869 28.2935 20.5059 28.2935 20.5059C28.0037 20.9727 27.8857 21.2048 28.2935 21.7305C28.4376 21.9315 28.7439 22.2316 29.0944 22.575C29.455 22.9283 29.8624 23.3274 30.1881 23.7118C31.3701 25.0405 32.261 26.1635 32.5081 26.9352C32.734 27.7106 32.3413 28.1033 31.5558 28.1033H28.8054C28.0695 28.1033 27.6982 27.6904 26.8962 26.7984C26.5564 26.4206 26.1394 25.9567 25.5845 25.4019C23.9521 23.8297 23.252 23.6239 22.8455 23.6239C22.2921 23.6239 22.1252 23.782 22.1252 24.5675V27.0343C22.1252 27.7118 21.9094 28.1046 20.1616 28.1046C17.2456 28.1046 14.0448 26.3354 11.7712 23.0718C8.36084 18.2926 7.42857 14.6789 7.42857 13.9487C7.42857 13.5422 7.58541 13.172 8.37213 13.172H11.1225C11.8251 13.172 12.0899 13.4794 12.3521 14.241C13.6985 18.1608 15.967 21.585 16.8993 21.585C17.2506 21.585 17.41 21.4231 17.41 20.536V16.4858C17.3471 15.331 16.9439 14.8319 16.6455 14.4624C16.4614 14.2345 16.3171 14.0559 16.3171 13.8031C16.3171 13.4945 16.5806 13.1708 17.0172 13.1708H21.341C21.9245 13.1708 22.1265 13.4819 22.1265 14.1821V19.6314C22.1265 20.2148 22.3799 20.4181 22.5544 20.4181C22.9032 20.4181 23.1955 20.2148 23.8354 19.5711C25.8179 17.3591 27.2169 13.9474 27.2169 13.9474C27.3926 13.5409 27.7126 13.1708 28.4127 13.1708H31.1643Z"/>
</svg>
