<svg width="20" height="20" viewBox="0 0 20 20" fill="none" xmlns="http://www.w3.org/2000/svg">
<g clip-path="url(#clip0)">
<path d="M16.8933 20C16.0658 20 15.2875 19.6775 14.7025 19.0925L7.32083 11.7108C6.99 11.38 6.51833 11.2025 6.0525 11.2417C4.41167 11.3683 2.79917 10.775 1.63333 9.60833C0.3675 8.34167 0 6.87333 0 5.60333C0 4.22917 0.430833 3.08833 0.619167 2.69L4.27667 6.3475C4.74167 6.31083 5.38417 5.8975 5.835 5.33917C6.13083 4.9725 6.31417 4.58167 6.33917 4.28333L2.68083 0.625C3.5075 0.273333 4.63417 0 5.63083 0C7.13167 0 8.5425 0.5825 9.60167 1.64083C10.7658 2.80667 11.3608 4.4175 11.2333 6.06083C11.1975 6.53167 11.3683 6.99417 11.7025 7.32833L19.085 14.7108C19.695 15.3217 20 16.1117 20 16.9025C20 17.6808 19.7042 18.46 19.1083 19.0683C18.5208 19.6692 17.7342 20 16.8933 20ZM6.1775 9.57167C7.04083 9.57167 7.88667 9.9225 8.49833 10.5333L15.88 17.915C16.4267 18.4617 17.3792 18.4558 17.9192 17.9042C18.1908 17.6267 18.3358 17.2592 18.3275 16.87C18.3192 16.5 18.17 16.15 17.9075 15.8875L10.5258 8.50583C9.8475 7.82917 9.50083 6.89083 9.57333 5.93333C9.66333 4.77417 9.24417 3.64 8.42417 2.81917C7.79167 2.18667 6.98 1.795 6.1025 1.69167L7.905 3.49417C8.0975 4.38167 8.01917 5.28333 7.13083 6.38417C6.21 7.52583 4.9725 8.23583 3.48667 7.91167L1.685 6.11C1.78917 6.97583 2.17583 7.79583 2.81167 8.43167C3.6325 9.25333 4.7675 9.67417 5.925 9.58167L6.1775 9.57167Z" fill="#111111"/>
</g>
<defs>
<clipPath id="clip0">
<rect width="20" height="20" fill="white"/>
</clipPath>
</defs>
</svg>
