<?xml version="1.0" encoding="utf-8"?><svg xmlns="http://www.w3.org/2000/svg" xmlns:xlink="http://www.w3.org/1999/xlink"><symbol fill="none" viewBox="0 0 16 16" id="arrow-left" xmlns="http://www.w3.org/2000/svg"><path d="M12.667 8H3.333M8 12.667L3.333 8 8 3.333" stroke="#8F8F8F" stroke-width="1.333" stroke-linecap="round" stroke-linejoin="round"/></symbol><symbol fill="none" viewBox="0 0 20 20" id="box" xmlns="http://www.w3.org/2000/svg"><path d="M17.5 13.333V6.667a1.667 1.667 0 00-.833-1.442l-5.834-3.333a1.666 1.666 0 00-1.666 0L3.333 5.225A1.667 1.667 0 002.5 6.667v6.666a1.667 1.667 0 00.833 1.442l5.834 3.333a1.666 1.666 0 001.666 0l5.834-3.333a1.668 1.668 0 00.833-1.442z" stroke="#111" stroke-width="1.667" stroke-linecap="round" stroke-linejoin="round"/><path d="M2.725 5.8L10 10.008 17.275 5.8M10 18.4V10" stroke="#111" stroke-width="1.667" stroke-linecap="round" stroke-linejoin="round"/></symbol><symbol fill="none" viewBox="0 0 20 20" id="check" xmlns="http://www.w3.org/2000/svg"><path d="M15.333 6L8 13.333 4.667 10" stroke="#111" stroke-width="1.667" stroke-linecap="round" stroke-linejoin="round"/></symbol><symbol fill="none" viewBox="0 0 20 20" id="check-circle" xmlns="http://www.w3.org/2000/svg"><path d="M18.333 9.233V10a8.333 8.333 0 11-4.941-7.617" stroke="#111" stroke-width="1.67" stroke-linecap="round" stroke-linejoin="round"/><path d="M18.333 3.333L10 11.675l-2.5-2.5" stroke="#111" stroke-width="1.67" stroke-linecap="round" stroke-linejoin="round"/></symbol><symbol fill="none" viewBox="0 0 16 16" id="chevron-down" xmlns="http://www.w3.org/2000/svg"><path d="M4 6l4 4 4-4" stroke="#8F8F8F" stroke-width="1.333" stroke-linecap="round" stroke-linejoin="round"/></symbol><symbol fill="none" viewBox="0 0 32 32" id="chevron-left" xmlns="http://www.w3.org/2000/svg"><path d="M19 24l-8-8 8-8"/></symbol><symbol fill="none" viewBox="0 0 32 32" id="chevron-right" xmlns="http://www.w3.org/2000/svg"><path d="M13 24l8-8-8-8"/></symbol><symbol fill="none" viewBox="0 0 20 20" id="chevron-up" xmlns="http://www.w3.org/2000/svg"><path d="M15 12.5l-5-5-5 5" stroke="#111" stroke-width="1.667" stroke-linecap="round" stroke-linejoin="round"/></symbol><symbol fill="none" viewBox="0 0 16 16" id="clock" xmlns="http://www.w3.org/2000/svg"><path d="M8 14.667A6.667 6.667 0 108 1.333a6.667 6.667 0 000 13.334z" stroke="#8F8F8F" stroke-width="1.333" stroke-linecap="round" stroke-linejoin="round"/><path d="M8 4v4l2.667 1.333" stroke="#8F8F8F" stroke-width="1.333" stroke-linecap="round" stroke-linejoin="round"/></symbol><symbol fill="none" viewBox="0 0 32 32" id="close" xmlns="http://www.w3.org/2000/svg"><path d="M24 8L8 24M8 8l16 16" stroke="#8F8F8F" stroke-width="2" stroke-linecap="round" stroke-linejoin="round"/></symbol><symbol fill="none" viewBox="0 0 32 32" id="contract" xmlns="http://www.w3.org/2000/svg"><path d="M30.28 10.812c-.959-.96-2.52-.96-3.48 0l-2.468 2.47v-6.5c0-.658-.256-1.276-.721-1.74L21.29 2.72A2.445 2.445 0 0019.55 2H5.462a2.464 2.464 0 00-2.461 2.461v23.08a2.464 2.464 0 002.461 2.461H21.87a2.464 2.464 0 002.462-2.461v-7.294l5.948-5.954a2.46 2.46 0 000-3.48zM19.41 3.641c.154 0 .453-.027.72.24l2.32 2.32c.26.26.24.546.24.721h-3.28V3.641zm3.28 23.9c0 .452-.367.82-.82.82H5.463a.821.821 0 01-.82-.82V4.46c0-.452.368-.82.82-.82H17.77v4.102c0 .453.367.82.82.82h4.102v6.362l-2.42 2.422-1.16 1.16c-.09.09-.158.2-.198.32l-1.16 3.481a.82.82 0 001.037 1.038l3.48-1.16a.82.82 0 00.321-.198l.1-.1v5.653zm-1.839-8.454l1.16 1.16-.443.443-1.74.58.58-1.74.443-.443zm2.32 0l-1.16-1.16 3.944-3.947 1.16 1.16-3.944 3.947zm5.95-5.954l-.847.846-1.16-1.16.846-.847a.821.821 0 011.16 1.16z" fill="#8F8F8F"/><path d="M18.588 10.204H7.103a.82.82 0 000 1.64h11.485a.82.82 0 100-1.64zM15.307 13.485H7.103a.82.82 0 000 1.641h8.204a.82.82 0 000-1.64zM15.307 16.767H7.103a.82.82 0 000 1.64h8.204a.82.82 0 000-1.64zM15.307 20.048H7.103a.82.82 0 000 1.641h8.204a.82.82 0 000-1.64zM18.588 25.08h-4.922a.82.82 0 100 1.64h4.922a.82.82 0 100-1.64z" fill="#8F8F8F"/></symbol><symbol fill="none" viewBox="0 0 16 16" id="cross" xmlns="http://www.w3.org/2000/svg"><path d="M12 4l-8 8M4 4l8 8" stroke="#8F8F8F" stroke-width="1.333" stroke-linecap="round" stroke-linejoin="round"/></symbol><symbol fill="none" viewBox="0 0 20 20" id="edit" xmlns="http://www.w3.org/2000/svg"><path d="M10 16.667h7.5M13.75 2.917a1.768 1.768 0 012.5 2.5L5.833 15.833l-3.333.834.833-3.334L13.75 2.917z" stroke="#111" stroke-width="1.667" stroke-linecap="round" stroke-linejoin="round"/></symbol><symbol fill="none" viewBox="0 0 12 12" id="eye-fill" xmlns="http://www.w3.org/2000/svg"><path fill-rule="evenodd" clip-rule="evenodd" d="M6 2C2.5 2 .5 6 .5 6s2 4 5.5 4 5.5-4 5.5-4-2-4-5.5-4zm1.5 4a1.5 1.5 0 11-3 0 1.5 1.5 0 013 0z" fill="#8F8F8F"/></symbol><symbol fill="none" viewBox="0 0 16 16" id="eye-off" xmlns="http://www.w3.org/2000/svg"><path d="M9.413 9.413a2 2 0 11-2.826-2.826m5.373 5.373A6.713 6.713 0 018 13.333C3.333 13.333.667 8 .667 8A12.3 12.3 0 014.04 4.04l7.92 7.92zM6.6 2.827a6.08 6.08 0 011.4-.16C12.667 2.667 15.333 8 15.333 8c-.404.757-.887 1.47-1.44 2.127L6.6 2.827zM.667.667l14.666 14.666" stroke="#8F8F8F" stroke-width="1.333" stroke-linecap="round" stroke-linejoin="round"/></symbol><symbol fill="none" viewBox="0 0 16 16" id="eye-stroke" xmlns="http://www.w3.org/2000/svg"><path d="M.667 8S3.333 2.667 8 2.667 15.333 8 15.333 8 12.667 13.333 8 13.333.667 8 .667 8z" stroke="#8F8F8F" stroke-width="1.333" stroke-linecap="round" stroke-linejoin="round"/><path d="M8 10a2 2 0 100-4 2 2 0 000 4z" stroke="#8F8F8F" stroke-width="1.333" stroke-linecap="round" stroke-linejoin="round"/></symbol><symbol fill="none" viewBox="0 0 32 32" id="facebook" xmlns="http://www.w3.org/2000/svg"><circle cx="16" cy="16" r="16" fill="#3B5998"/><path fill-rule="evenodd" clip-rule="evenodd" d="M20.252 10.366a9.443 9.443 0 00-1.596-.174c-1.147 0-1.221.499-1.221 1.296v1.42h2.867l-.25 2.943h-2.617V24.8h-3.59v-8.95H12V12.91h1.845v-1.82c0-2.493 1.172-3.889 4.113-3.889 1.022 0 1.77.15 2.742.349l-.448 2.817z" fill="#fff"/></symbol><symbol fill="none" viewBox="0 0 20 20" id="file-text" xmlns="http://www.w3.org/2000/svg"><path d="M11.667 1.667H5a1.667 1.667 0 00-1.667 1.666v13.334A1.666 1.666 0 005 18.333h10a1.667 1.667 0 001.667-1.666v-10l-5-5z" stroke="#111" stroke-width="1.667" stroke-linecap="round" stroke-linejoin="round"/><path d="M11.667 1.667v5h5M13.333 10.833H6.667M13.333 14.167H6.667M8.333 7.5H6.667" stroke="#111" stroke-width="1.667" stroke-linecap="round" stroke-linejoin="round"/></symbol><symbol viewBox="0 0 16 16" id="grid-fill" xmlns="http://www.w3.org/2000/svg"><path d="M6.667 2H2v4.667h4.667V2zM14 2H9.333v4.667H14V2zM14 9.334H9.333V14H14V9.334zM6.667 9.334H2V14h4.667V9.334z"/></symbol><symbol fill="none" viewBox="0 0 20 20" id="grid-stroke" xmlns="http://www.w3.org/2000/svg"><path d="M8.333 2.5H2.5v5.833h5.833V2.5zM17.5 2.5h-5.833v5.833H17.5V2.5zM17.5 11.667h-5.833V17.5H17.5v-5.833zM8.333 11.667H2.5V17.5h5.833v-5.833z" stroke="#111" stroke-width="1.333" stroke-linecap="round" stroke-linejoin="round"/></symbol><symbol fill="none" viewBox="0 0 32 32" id="headphones" xmlns="http://www.w3.org/2000/svg"><path d="M16 4C8.31 4 2 10.256 2 17.945v6.563a2.464 2.464 0 002.46 2.46h.821v-8.202h-.82c-.289 0-.563.059-.82.15v-.97C3.64 11.16 9.215 5.64 16 5.64s12.36 5.52 12.36 12.304v.972a2.433 2.433 0 00-.82-.151h-.821v8.203h.82A2.464 2.464 0 0030 24.508v-6.563C30 10.255 23.69 4 16 4z" fill="#8F8F8F"/><path d="M9.383 17.125h-.82a1.64 1.64 0 00-1.641 1.64v8.204c0 .906.734 1.64 1.64 1.64h.82a.82.82 0 00.821-.82v-9.844a.82.82 0 00-.82-.82zM23.438 17.125h-.82a.82.82 0 00-.821.82v9.844c0 .453.367.82.82.82h.82a1.64 1.64 0 001.641-1.64v-8.203a1.64 1.64 0 00-1.64-1.641z" fill="#8F8F8F"/></symbol><symbol fill="none" viewBox="0 0 20 20" id="heart" xmlns="http://www.w3.org/2000/svg"><path d="M17.367 3.842a4.584 4.584 0 00-6.484 0L10 4.725l-.883-.883a4.584 4.584 0 10-6.484 6.483l.884.883L10 17.692l6.483-6.484.884-.883a4.585 4.585 0 000-6.483z"/></symbol><symbol fill="none" viewBox="0 0 12 12" id="heart-fill" xmlns="http://www.w3.org/2000/svg"><path d="M10.42 2.305a2.75 2.75 0 00-3.89 0l-.53.53-.53-.53a2.75 2.75 0 10-3.89 3.89l.53.53L6 10.615l3.89-3.89.53-.53a2.75 2.75 0 000-3.89z" fill="#8F8F8F"/></symbol><symbol fill="none" viewBox="0 0 16 16" id="heart-stroke" xmlns="http://www.w3.org/2000/svg"><path d="M13.893 3.073a3.667 3.667 0 00-5.186 0L8 3.78l-.707-.707A3.668 3.668 0 002.107 8.26l.706.707L8 14.153l5.187-5.186.706-.707a3.667 3.667 0 000-5.187z"/></symbol><symbol fill="none" viewBox="0 0 32 32" id="humidity" xmlns="http://www.w3.org/2000/svg"><path d="M21.36 8.17c-1.432-1.827-2.912-3.713-4.106-5.74a.873.873 0 00-1.507 0c-1.193 2.025-2.674 3.913-4.105 5.739C8.741 11.869 6 15.363 6 19.5 6 25.29 10.71 30 16.5 30S27 25.29 27 19.5c0-4.135-2.739-7.63-5.64-11.33zM16.5 28.25c-4.825 0-8.75-3.925-8.75-8.75 0-3.533 2.559-6.795 5.27-10.252 1.182-1.508 2.397-3.057 3.48-4.716 1.083 1.66 2.298 3.21 3.48 4.718 2.712 3.455 5.27 6.719 5.27 10.25 0 4.825-3.925 8.75-8.75 8.75z" fill="#8F8F8F"/><path d="M13.875 12.5a2.628 2.628 0 00-2.625 2.625 2.628 2.628 0 002.625 2.625 2.628 2.628 0 002.625-2.625 2.628 2.628 0 00-2.625-2.625zm0 3.5a.875.875 0 110-1.75.875.875 0 010 1.75zM19.125 21.25a2.628 2.628 0 00-2.625 2.625 2.628 2.628 0 002.625 2.625 2.628 2.628 0 002.625-2.625 2.628 2.628 0 00-2.625-2.625zm0 3.5a.878.878 0 01-.875-.875c0-.481.394-.875.875-.875s.875.394.875.875a.878.878 0 01-.875.875zM21.493 14.507a.876.876 0 00-1.238 0l-8.75 8.75a.876.876 0 001.238 1.238l8.75-8.75a.876.876 0 000-1.238z" fill="#8F8F8F"/></symbol><symbol fill="none" viewBox="0 0 32 32" id="instagram" xmlns="http://www.w3.org/2000/svg"><circle cx="16" cy="16" r="16" fill="#C13584"/><path d="M16 8.13c2.563 0 2.867.01 3.88.056.935.042 1.444.199 1.782.33.448.174.768.382 1.104.718.336.336.544.656.718 1.104.131.338.288.847.33 1.783.046 1.012.056 1.316.056 3.879 0 2.563-.01 2.867-.056 3.88-.042.935-.199 1.443-.33 1.782a2.975 2.975 0 01-.718 1.104 2.976 2.976 0 01-1.104.718c-.338.131-.847.287-1.783.33-1.012.046-1.316.056-3.879.056-2.563 0-2.867-.01-3.88-.056-.935-.043-1.443-.199-1.782-.33a2.975 2.975 0 01-1.104-.719 2.974 2.974 0 01-.718-1.103c-.131-.339-.288-.847-.33-1.783-.046-1.012-.056-1.316-.056-3.88 0-2.562.01-2.866.056-3.878.042-.936.199-1.445.33-1.783.174-.448.382-.768.718-1.104a2.974 2.974 0 011.104-.718c.339-.131.847-.288 1.783-.33 1.012-.047 1.316-.056 3.879-.056zm0-1.73c-2.607 0-2.934.01-3.958.058-1.022.046-1.72.209-2.33.446a4.706 4.706 0 00-1.7 1.107 4.706 4.706 0 00-1.108 1.7c-.237.611-.4 1.309-.446 2.33C6.41 13.067 6.4 13.394 6.4 16s.011 2.934.058 3.958c.046 1.022.209 1.72.446 2.33a4.705 4.705 0 001.107 1.7c.534.534 1.07.863 1.7 1.108.611.237 1.31.4 2.33.446 1.025.047 1.352.058 3.959.058s2.934-.011 3.958-.058c1.022-.047 1.72-.209 2.33-.446a4.706 4.706 0 001.7-1.107 4.705 4.705 0 001.108-1.7c.237-.611.4-1.31.446-2.331.047-1.024.058-1.35.058-3.958 0-2.607-.011-2.934-.058-3.958-.046-1.022-.209-1.72-.446-2.33a4.705 4.705 0 00-1.107-1.7 4.707 4.707 0 00-1.7-1.108c-.611-.237-1.31-.4-2.33-.446C18.933 6.41 18.606 6.4 16 6.4z" fill="#fff"/><path d="M16.005 11.075a4.93 4.93 0 100 9.86 4.93 4.93 0 000-9.86zm0 8.13a3.2 3.2 0 110-6.4 3.2 3.2 0 010 6.4zM22.28 10.877a1.152 1.152 0 11-2.303 0 1.152 1.152 0 012.304 0z" fill="#fff"/></symbol><symbol fill="none" viewBox="0 0 20 20" id="map-pin" xmlns="http://www.w3.org/2000/svg"><path d="M17.5 8.333c0 5.834-7.5 10.834-7.5 10.834s-7.5-5-7.5-10.834a7.5 7.5 0 0115 0z"/><path d="M10 10.833a2.5 2.5 0 100-5 2.5 2.5 0 000 5z"/></symbol><symbol fill="none" viewBox="0 0 20 20" id="menu" xmlns="http://www.w3.org/2000/svg"><path d="M2.5 10h15M2.5 5h15M2.5 15h15" stroke="#000" stroke-width="1.667" stroke-linecap="round" stroke-linejoin="round"/></symbol><symbol fill="none" viewBox="0 0 20 20" id="more-vertical" xmlns="http://www.w3.org/2000/svg"><path d="M10 10.833a.833.833 0 100-1.666.833.833 0 000 1.666zM10 5a.833.833 0 100-1.667A.833.833 0 0010 5zM10 16.667A.833.833 0 1010 15a.833.833 0 000 1.667z" stroke="#111" stroke-width="1.667" stroke-linecap="round" stroke-linejoin="round"/></symbol><symbol fill="none" viewBox="0 0 16 16" id="plan" xmlns="http://www.w3.org/2000/svg"><path d="M10.667 2.667H12A1.333 1.333 0 0113.333 4v9.333A1.333 1.333 0 0112 14.667H4a1.333 1.333 0 01-1.333-1.334V4A1.333 1.333 0 014 2.667h1.333"/><path d="M10 1.333H6A.667.667 0 005.333 2v1.333c0 .368.299.667.667.667h4a.667.667 0 00.667-.667V2A.667.667 0 0010 1.333z"/></symbol><symbol fill="none" viewBox="0 0 16 16" id="plus" xmlns="http://www.w3.org/2000/svg"><path d="M8 3.333v9.334M3.333 8h9.334" stroke="#8F8F8F" stroke-width="1.333" stroke-linecap="round" stroke-linejoin="round"/></symbol><symbol fill="none" viewBox="0 0 12 12" id="point" xmlns="http://www.w3.org/2000/svg"><path d="M6 7a1 1 0 100-2 1 1 0 000 2z" stroke="#8F8F8F" stroke-width="2" stroke-linecap="round" stroke-linejoin="round"/></symbol><symbol fill="none" viewBox="0 0 20 20" id="printer" xmlns="http://www.w3.org/2000/svg"><path d="M5 7.5V1.667h10V7.5M5 15H3.333a1.667 1.667 0 01-1.666-1.667V9.167A1.667 1.667 0 013.333 7.5h13.334a1.666 1.666 0 011.666 1.667v4.166A1.666 1.666 0 0116.667 15H15" stroke="#111" stroke-width="1.667" stroke-linecap="round" stroke-linejoin="round"/><path d="M15 11.667H5v6.666h10v-6.666z" stroke="#111" stroke-width="1.667" stroke-linecap="round" stroke-linejoin="round"/></symbol><symbol fill="none" viewBox="0 0 20 20" id="progress" xmlns="http://www.w3.org/2000/svg"><path d="M13.338 10.004a3.333 3.333 0 10-6.667 0 3.333 3.333 0 006.667 0zM10.004 19.13v-4.96M10.004 5.83V.87" stroke="#111" stroke-width="1.667" stroke-linecap="round" stroke-linejoin="round"/></symbol><symbol fill="none" viewBox="0 0 20 20" id="search" xmlns="http://www.w3.org/2000/svg"><path d="M9.167 15.833a6.667 6.667 0 100-13.333 6.667 6.667 0 000 13.333zM17.5 17.5l-3.625-3.625" stroke="#111" stroke-width="1.667" stroke-linecap="round" stroke-linejoin="round"/></symbol><symbol fill="none" viewBox="0 0 16 16" id="trash" xmlns="http://www.w3.org/2000/svg"><path d="M2 4h12M5.333 4V2.667a1.333 1.333 0 011.334-1.334h2.666a1.333 1.333 0 011.334 1.334V4m2 0v9.333a1.333 1.333 0 01-1.334 1.334H4.667a1.334 1.334 0 01-1.334-1.334V4h9.334z" stroke="#8F8F8F" stroke-width="1.333" stroke-linecap="round" stroke-linejoin="round"/></symbol><symbol fill="none" viewBox="0 0 20 20" id="user" xmlns="http://www.w3.org/2000/svg"><path d="M16.667 17.5v-1.667a3.333 3.333 0 00-3.334-3.333H6.667a3.333 3.333 0 00-3.334 3.333V17.5M10 9.167A3.333 3.333 0 1010 2.5a3.333 3.333 0 000 6.667z" stroke="#111" stroke-width="1.667" stroke-linecap="round" stroke-linejoin="round"/></symbol><symbol fill="none" viewBox="0 0 20 20" id="video" xmlns="http://www.w3.org/2000/svg"><path d="M19.167 5.833L13.333 10l5.834 4.167V5.833zM11.667 4.167H2.5c-.92 0-1.667.746-1.667 1.666v8.334c0 .92.747 1.666 1.667 1.666h9.167c.92 0 1.666-.746 1.666-1.666V5.833c0-.92-.746-1.666-1.666-1.666z" stroke="#111" stroke-width="1.667" stroke-linecap="round" stroke-linejoin="round"/></symbol><symbol fill="none" viewBox="0 0 32 32" id="vk" xmlns="http://www.w3.org/2000/svg"><circle cx="16" cy="16" r="16" fill="#7294C7"/><path d="M23.845 20.092c0-.066-.066-.066-.066-.133-.266-.531-.864-1.195-1.66-1.926-.4-.332-.599-.598-.732-.73-.199-.266-.199-.465-.132-.731.066-.2.332-.531.797-1.13.265-.331.398-.53.598-.73.996-1.328 1.46-2.191 1.328-2.59l-.067-.066c-.066-.067-.132-.133-.265-.133-.133-.067-.332-.067-.532 0H20.126l-.067.066c-.066.066-.066.066-.066.133-.266.73-.598 1.328-.93 1.992-.2.333-.399.665-.598.93-.2.266-.332.465-.465.598-.133.133-.265.2-.332.332-.066.067-.2.133-.2.067-.066 0-.132 0-.132-.067l-.2-.199c-.066-.066-.066-.2-.132-.332v-.332-.399-.398-.73-.599-.464-.399c0-.066-.067-.2-.067-.266l-.199-.199c-.066-.066-.199-.066-.265-.133a5.959 5.959 0 00-1.196-.133c-1.063 0-1.793.067-2.059.2-.133.066-.266.132-.332.265-.133.133-.133.2-.066.2.332.066.597.199.73.398l.067.133c.066.066.066.2.132.398.067.2.067.399.067.665v1.062c0 .332-.067.532-.067.73 0 .2-.066.333-.132.4-.067.132-.067.199-.133.199 0 0 0 .066-.067.066-.066 0-.133.067-.265.067a.503.503 0 01-.266-.133.8.8 0 01-.332-.332c-.133-.133-.266-.332-.399-.598-.132-.266-.332-.532-.465-.93l-.132-.266c-.067-.133-.2-.398-.332-.73-.133-.332-.266-.598-.399-.93a.917.917 0 00-.2-.266h-.066s-.066-.066-.133-.066c-.066 0-.132-.067-.199-.067H7.84c-.266 0-.4.067-.466.133l-.066.066v.133c0 .067 0 .133.066.266.332.797.73 1.594 1.13 2.391.398.73.796 1.395 1.062 1.86.332.465.598.93.93 1.328.332.399.531.664.598.797l.265.266.2.2c.133.132.332.331.597.53.266.2.598.399.93.598.332.2.73.332 1.13.465.464.133.863.2 1.261.133h.997c.199 0 .332-.066.465-.2l.066-.066c0-.066.066-.066.066-.133v-.265c0-.266 0-.465.067-.664.066-.2.066-.332.133-.465.066-.133.132-.2.199-.266l.133-.133h.066c.133-.066.332 0 .465.133.2.133.399.332.531.531.133.2.332.399.598.665.266.265.465.465.598.53l.2.134c.132.066.265.133.464.199.2.066.332.066.465.066l2.258-.066c.2 0 .399-.066.532-.133.132-.066.199-.133.199-.265v-.266c-.133-.133-.133-.2-.133-.266z" fill="#fff"/></symbol><symbol fill="none" viewBox="0 0 20 20" id="wrench" xmlns="http://www.w3.org/2000/svg"><g clip-path="url(#bnclip0)"><path d="M16.893 20a3.079 3.079 0 01-2.19-.907L7.32 11.71a1.622 1.622 0 00-1.268-.47 5.629 5.629 0 01-4.42-1.633C.367 8.342 0 6.873 0 5.603 0 4.23.43 3.088.62 2.69l3.657 3.658c.465-.037 1.107-.45 1.558-1.009.296-.367.48-.757.504-1.056L2.681.625C3.507.273 4.634 0 5.63 0c1.5 0 2.912.583 3.97 1.64a5.632 5.632 0 011.632 4.42c-.036.472.135.934.47 1.268l7.382 7.383c.61.61.915 1.4.915 2.191 0 .779-.296 1.558-.892 2.166-.587.601-1.374.932-2.215.932zM6.177 9.572c.864 0 1.71.35 2.321.961l7.382 7.382c.547.547 1.5.54 2.04-.01.27-.278.416-.646.407-1.035a1.43 1.43 0 00-.42-.983l-7.381-7.381a3.28 3.28 0 01-.953-2.573A3.965 3.965 0 008.424 2.82a3.918 3.918 0 00-2.321-1.127l1.802 1.802c.192.888.114 1.79-.774 2.89-.921 1.142-2.159 1.852-3.644 1.528L1.685 6.11a3.952 3.952 0 004.24 3.472l.252-.01z" fill="#111"/></g><defs><clipPath id="bnclip0"><path fill="#fff" d="M0 0h20v20H0z"/></clipPath></defs></symbol><symbol fill="none" viewBox="0 0 48 36" id="youtube" xmlns="http://www.w3.org/2000/svg"><path d="M18.5 9.75L31.333 18 18.5 26.25V9.75z" fill="#fff"/></symbol></svg>